<svg version="1.1" id="Capa_1" xmlns="http://www.w3.org/2000/svg" xmlns:xlink="http://www.w3.org/1999/xlink" x="0px" y="0px" viewBox="0 0 512 512" style="enable-background:new 0 0 512 512;" xml:space="preserve">
<g>
	<g>
		<path style="fill:none;stroke:#000000;stroke-width:15;stroke-linecap:round;stroke-linejoin:round;stroke-miterlimit:10;" d="&#10;&#9;&#9;&#9;M483.924,315.385H28.076v-34.923c0-9.361,7.588-16.949,16.949-16.949h421.951c9.361,0,16.949,7.588,16.949,16.949V315.385z"/>
		<path style="fill:none;stroke:#000000;stroke-width:15;stroke-linecap:round;stroke-linejoin:round;stroke-miterlimit:10;" d="&#10;&#9;&#9;&#9;M382.933,343.377h107.571c7.73,0,13.996-6.266,13.996-13.996v0c0-7.73-6.266-13.996-13.996-13.996H21.496&#10;&#9;&#9;&#9;c-7.73,0-13.996,6.266-13.996,13.996v0c0,7.73,6.266,13.996,13.996,13.996h326.238"/>
	</g>
	<g>
		<path style="fill:none;stroke:#000000;stroke-width:15;stroke-linecap:round;stroke-linejoin:round;stroke-miterlimit:10;" d="&#10;&#9;&#9;&#9;M354.234,457.004H157.766c-7.73,0-13.996,6.266-13.996,13.996v0c0,7.73,6.266,13.996,13.996,13.996h196.467&#10;&#9;&#9;&#9;c7.73,0,13.996-6.266,13.996-13.996v0C368.23,463.27,361.963,457.004,354.234,457.004z"/>
	</g>
	<path style="fill:none;stroke:#000000;stroke-width:15;stroke-linecap:round;stroke-linejoin:round;stroke-miterlimit:10;" d="&#10;&#9;&#9;M458.43,263.513H330.626l22.687-24.208c4.589-4.897,11-7.675,17.711-7.675h69.104c10.108,0,18.302,8.194,18.302,18.302V263.513z"/>
	<path style="fill:none;stroke:#000000;stroke-width:15;stroke-linecap:round;stroke-linejoin:round;stroke-miterlimit:10;" d="&#10;&#9;&#9;M268.79,411.02h35.38c7.61,0,14.52-4.43,17.69-11.35l25.87-56.41H164.27l25.87,56.41c3.17,6.92,10.08,11.35,17.69,11.35h33.96"/>
	<g>
		
			<rect x="241.79" y="384.273" style="fill:none;stroke:#000000;stroke-width:15;stroke-linecap:round;stroke-linejoin:round;stroke-miterlimit:10;" width="27" height="72.73"/>
	</g>
	
		<line style="fill:none;stroke:#000000;stroke-width:15;stroke-linecap:round;stroke-linejoin:round;stroke-miterlimit:10;" x1="288.916" y1="384.273" x2="221.664" y2="384.273"/>
	<path style="fill:none;stroke:#000000;stroke-width:15;stroke-linecap:round;stroke-linejoin:round;stroke-miterlimit:10;" d="&#10;&#9;&#9;M205.614,140.28v27.605c0,8.02-6.501,14.521-14.521,14.521H42.597c-8.02,0-14.522-6.501-14.522-14.521V77.106&#10;&#9;&#9;c0-8.02,6.502-14.522,14.522-14.522h148.496c8.02,0,14.521,6.501,14.521,14.522v27.861"/>
	
		<polyline style="fill:none;stroke:#000000;stroke-width:15;stroke-linecap:round;stroke-linejoin:round;stroke-miterlimit:10;" points="&#10;&#9;&#9;59.094,122.495 78.133,122.495 100.979,101.764 118.749,143.226 137.788,111.119 146.249,122.495 174.596,122.495 &#9;"/>
	<path style="fill:none;stroke:#000000;stroke-width:15;stroke-linecap:round;stroke-linejoin:round;stroke-miterlimit:10;" d="&#10;&#9;&#9;M116.845,182.406v33.576c0,6.254,2.45,12.258,6.826,16.727l30.166,30.804"/>
	<path style="fill:none;stroke:#000000;stroke-width:15;stroke-linecap:round;stroke-linejoin:round;stroke-miterlimit:10;" d="&#10;&#9;&#9;M481.649,133.622l-8.039-26.105c-0.989-3.212-3.294-5.855-6.342-7.272l-76.052-35.361c-2.984-1.387-6.41-1.474-9.461-0.239&#10;&#9;&#9;l-25.843,10.46c-4.308,1.744-7.794,5.058-9.754,9.272l-8.261,17.768c-3.541,7.616-0.238,16.661,7.379,20.203l106.936,49.72&#10;&#9;&#9;c7.616,3.541,16.662,0.238,20.203-7.379l8.337-17.931C482.665,142.641,482.985,137.961,481.649,133.622z"/>
	<path style="fill:none;stroke:#000000;stroke-width:15;stroke-linecap:round;stroke-linejoin:round;stroke-miterlimit:10;" d="&#10;&#9;&#9;M456.886,95.418l-56.016-26.045l0.736-1.582c7.192-15.468,25.562-22.177,41.03-14.985l0,0c15.468,7.192,22.177,25.562,14.985,41.03&#10;&#9;&#9;L456.886,95.418z"/>
	<path style="fill:none;stroke:#000000;stroke-width:15;stroke-linecap:round;stroke-linejoin:round;stroke-miterlimit:10;" d="&#10;&#9;&#9;M442.637,52.805l12.645-20.121c2.221-3.535,6.103-5.68,10.278-5.68H504.5"/>
	
		<line style="fill:none;stroke:#000000;stroke-width:15;stroke-linecap:round;stroke-linejoin:round;stroke-miterlimit:10;" x1="346.159" y1="84.377" x2="480.751" y2="146.758"/>
</g>
<g>
</g>
<g>
</g>
<g>
</g>
<g>
</g>
<g>
</g>
<g>
</g>
<g>
</g>
<g>
</g>
<g>
</g>
<g>
</g>
<g>
</g>
<g>
</g>
<g>
</g>
<g>
</g>
<g>
</g>
</svg>