<?xml version="1.0" encoding="UTF-8" standalone="no"?>
<!-- Created with Inkscape (http://www.inkscape.org/) -->

<svg
   version="1.1"
   id="svg375"
   xml:space="preserve"
   width="682.66669"
   height="682.66669"
   viewBox="0 0 682.66669 682.66669"
   xmlns="http://www.w3.org/2000/svg"
   xmlns:svg="http://www.w3.org/2000/svg"><defs
     id="defs379"><clipPath
       clipPathUnits="userSpaceOnUse"
       id="clipPath389"><path
         d="M 0,512 H 512 V 0 H 0 Z"
         id="path387" /></clipPath></defs><g
     id="g381"
     transform="matrix(1.3333333,0,0,-1.3333333,0,682.66667)"><g
       id="g383"><g
         id="g385"
         clip-path="url(#clipPath389)"><g
           id="g391"
           transform="translate(269.6668,462)"><path
             d="m 0,0 h 84.333 c 22.092,0 40,-17.909 40,-40 v -217.538"
             style="fill:none;stroke:#000000;stroke-width:20;stroke-linecap:round;stroke-linejoin:round;stroke-miterlimit:10;stroke-dasharray:none;stroke-opacity:1"
             id="path393" /></g><g
           id="g395"
           transform="translate(365.9967,10)"><path
             d="m 0,0 h -315.997 c -22.091,0 -40,17.909 -40,40 v 372 c 0,22.091 17.909,40 40,40 h 84.583"
             style="fill:none;stroke:#000000;stroke-width:20;stroke-linecap:round;stroke-linejoin:round;stroke-miterlimit:10;stroke-dasharray:none;stroke-opacity:1"
             id="path397" /></g><g
           id="g399"
           transform="translate(350,288.2311)"><path
             d="M 0,0 V -78.418"
             style="fill:none;stroke:#000000;stroke-width:20;stroke-linecap:round;stroke-linejoin:round;stroke-miterlimit:10;stroke-dasharray:none;stroke-opacity:1"
             id="path401" /></g><g
           id="g403"
           transform="translate(317.4997,54)"><path
             d="m 0,0 h -263.5 v 364 h 296 v -39.769"
             style="fill:none;stroke:#000000;stroke-width:20;stroke-linecap:round;stroke-linejoin:round;stroke-miterlimit:10;stroke-dasharray:none;stroke-opacity:1"
             id="path405" /></g><g
           id="g407"
           transform="translate(269,419)"><path
             d="m 0,0 v 50 c 0,4.971 -4.029,9 -9,9 H -36.936 C -40.046,72.739 -52.321,83 -67,83 -81.679,83 -93.954,72.739 -97.064,59 H -125 c -4.971,0 -9,-4.029 -9,-9 V 0"
             style="fill:none;stroke:#000000;stroke-width:20;stroke-linecap:round;stroke-linejoin:round;stroke-miterlimit:10;stroke-dasharray:none;stroke-opacity:1"
             id="path409" /></g><g
           id="g411"
           transform="translate(254,344)"><path
             d="M 0,0 H -30 V 30 H -74 V 0 h -30 v -44 h 30 v -30 h 44 v 30 H 0 Z"
             style="fill:none;stroke:#000000;stroke-width:20;stroke-linecap:round;stroke-linejoin:round;stroke-miterlimit:10;stroke-dasharray:none;stroke-opacity:1"
             id="path413" /></g><g
           id="g415"
           transform="translate(116.2292,212.125)"><path
             d="m 0,0 11.125,-11.125 21,21"
             style="fill:none;stroke:#000000;stroke-width:20;stroke-linecap:round;stroke-linejoin:round;stroke-miterlimit:10;stroke-dasharray:none;stroke-opacity:1"
             id="path417" /></g><g
           id="g419"
           transform="translate(185.1042,201)"><path
             d="M 0,0 H 102.667"
             style="fill:none;stroke:#000000;stroke-width:20;stroke-linecap:round;stroke-linejoin:round;stroke-miterlimit:10;stroke-dasharray:none;stroke-opacity:1"
             id="path421" /></g><g
           id="g423"
           transform="translate(116.2292,143.125)"><path
             d="m 0,0 11.125,-11.125 21,21"
             style="fill:none;stroke:#000000;stroke-width:20;stroke-linecap:round;stroke-linejoin:round;stroke-miterlimit:10;stroke-dasharray:none;stroke-opacity:1"
             id="path425" /></g><g
           id="g427"
           transform="translate(185.1042,132)"><path
             d="M 0,0 H 51.333"
             style="fill:none;stroke:#000000;stroke-width:20;stroke-linecap:round;stroke-linejoin:round;stroke-miterlimit:10;stroke-dasharray:none;stroke-opacity:1"
             id="path429" /></g><g
           id="g431"
           transform="translate(446.655,111.0712)"><path
             d="m 0,0 c -2.009,8.335 -6.413,16.208 -13.222,22.523 -17.232,15.982 -44.191,15.982 -61.423,0 C -81.454,16.208 -85.858,8.335 -87.867,0 c -1.594,-6.616 -6.193,-12.037 -12.354,-14.927 -15.663,-7.348 -26.422,-23.41 -26.017,-41.949 0.524,-23.93 19.934,-43.484 43.86,-44.176 9.771,-0.282 18.865,2.539 26.375,7.549 7.289,4.862 16.85,4.862 24.139,0 7.511,-5.01 16.605,-7.831 26.375,-7.549 23.926,0.691 43.336,20.245 43.86,44.176 0.405,18.538 -10.353,34.601 -26.017,41.949 C 6.193,-12.037 1.595,-6.616 0,0 Z"
             style="fill:none;stroke:#000000;stroke-width:20;stroke-linecap:round;stroke-linejoin:round;stroke-miterlimit:10;stroke-dasharray:none;stroke-opacity:1"
             id="path433" /></g><g
           id="g435"
           transform="translate(401.8624,176.8793)"><path
             d="m 0,0 c 0,21.744 -14.654,39.371 -32.73,39.371 -18.076,0 -32.729,-17.627 -32.729,-39.371 0,-21.744 14.653,-39.371 32.729,-39.371 C -14.654,-39.371 0,-21.744 0,0 Z"
             style="fill:none;stroke:#000000;stroke-width:20;stroke-linecap:round;stroke-linejoin:round;stroke-miterlimit:10;stroke-dasharray:none;stroke-opacity:1"
             id="path437" /></g><g
           id="g439"
           transform="translate(403.5806,176.8793)"><path
             d="M 0,0 C 0,21.744 14.654,39.371 32.73,39.371 50.806,39.371 65.459,21.744 65.459,0 65.459,-21.744 50.806,-39.371 32.73,-39.371 14.654,-39.371 0,-21.744 0,0 Z"
             style="fill:none;stroke:#000000;stroke-width:20;stroke-linecap:round;stroke-linejoin:round;stroke-miterlimit:10;stroke-dasharray:none;stroke-opacity:1"
             id="path441" /></g><g
           id="g443"
           transform="translate(450.322,136.1992)"><path
             d="M 0,0 C 7.59,16.149 24.492,24.188 37.752,17.956 51.012,11.724 55.608,-6.419 48.019,-22.568 40.429,-38.717 23.527,-46.756 10.267,-40.524 -2.993,-34.292 -7.59,-16.149 0,0 Z"
             style="fill:none;stroke:#000000;stroke-width:20;stroke-linecap:round;stroke-linejoin:round;stroke-miterlimit:10;stroke-dasharray:none;stroke-opacity:1"
             id="path445" /></g><g
           id="g447"
           transform="translate(355.121,136.1992)"><path
             d="m 0,0 c -7.59,16.149 -24.492,24.188 -37.752,17.956 -13.26,-6.232 -17.856,-24.375 -10.267,-40.524 7.59,-16.149 24.492,-24.188 37.752,-17.956 C 2.993,-34.292 7.59,-16.149 0,0 Z"
             style="fill:none;stroke:#000000;stroke-width:20;stroke-linecap:round;stroke-linejoin:round;stroke-miterlimit:10;stroke-dasharray:none;stroke-opacity:1"
             id="path449" /></g><g
           id="g451"
           transform="translate(350,333.2311)"><path
             d="M 0,0 V 0"
             style="fill:none;stroke:#000000;stroke-width:20;stroke-linecap:round;stroke-linejoin:round;stroke-miterlimit:10;stroke-dasharray:none;stroke-opacity:1"
             id="path453" /></g></g></g></g></svg>
