<svg id="Capa_1" enable-background="new 0 0 284.544 284.544" height="512" viewBox="0 0 284.544 284.544" width="512" xmlns="http://www.w3.org/2000/svg"><path d="m209.328 284.544c-.854 0-1.717-.104-2.58-.313-3.69-.911-6.62-3.746-7.64-7.393-9.579-34.126-32.328-91.887-56.837-91.887s-47.257 57.761-56.832 91.887c-1.024 3.647-3.95 6.478-7.64 7.393-3.708.906-7.488-.185-10.101-2.945-22.166-23.384-20.359-70.822-20.269-72.832-.005-15.996 4.444-35.027 8.176-48.139 2.883-10.134.982-20.999-5.217-29.801-.939-1.333-1.84-2.665-2.703-3.998-12.581-19.377-19.23-42.562-19.23-67.042v-12.05c.001-37.513 40.33-47.424 61.651-47.424 27.017 0 45.071 11.794 52.165 17.442 7.095-5.648 25.149-17.442 52.166-17.442 21.321 0 61.65 9.911 61.65 47.423v12.05c0 24.48-6.649 47.665-19.23 67.042-.863 1.333-1.764 2.665-2.703 3.998-6.203 8.802-8.105 19.666-5.217 29.801 3.732 13.112 8.18 32.143 8.18 48.348.085 1.802 1.892 49.239-20.269 72.624-2.005 2.119-4.698 3.258-7.52 3.258zm-67.056-109.078c35.477 0 59.459 75.63 65.966 98.811.142.512.555.688.782.745.379.095.692.005.939-.256 19.429-20.496 17.694-65.439 17.675-65.894-.005-15.313-4.259-33.424-7.825-45.958-3.671-12.904-1.271-26.704 6.587-37.858.868-1.233 1.702-2.466 2.499-3.694 11.585-17.845 17.708-39.243 17.708-61.887v-12.05c0-37.403-50.036-37.934-52.17-37.939-30.669 0-48.637 17.414-48.817 17.589-1.854 1.835-4.851 1.835-6.696-.009-.171-.166-18.139-17.58-48.813-17.58-2.125.005-52.165.536-52.165 37.939v12.05c0 22.645 6.122 44.042 17.698 61.878.806 1.238 1.636 2.471 2.504 3.704 7.858 11.159 10.258 24.954 6.587 37.858-3.566 12.534-7.82 30.64-7.82 45.749-.024.659-1.717 45.645 17.67 66.098.251.266.564.346.944.261.232-.057.64-.228.782-.745 6.506-23.182 30.488-98.812 65.965-98.812z"/><path d="m99.591 56.908c-2.618 0-4.742-2.125-4.742-4.742 0-2.618 2.125-4.742 4.742-4.742 13.71 0 32.826-19.311 39.039-26.751 1.679-2.011 4.666-2.281 6.677-.602s2.281 4.662.607 6.677c-2.57 3.086-25.727 30.16-46.323 30.16z"/><path d="m171.522 99.584c-3.846 0-7.692-1.465-10.623-4.391-5.857-5.857-5.857-15.389 0-21.246l36.345-36.35c5.861-5.852 15.389-5.857 21.246 0s5.857 15.389 0 21.246l-36.345 36.35c-2.931 2.921-6.777 4.391-10.623 4.391zm-3.917-11.102c2.162 2.158 5.672 2.162 7.834 0l36.345-36.345c2.158-2.162 2.158-5.672 0-7.834-2.158-2.158-5.672-2.162-7.834 0l-36.345 36.345c-2.158 2.162-2.158 5.676 0 7.834z"/><path d="m175.155 71.135c-1.257 0-2.466-.498-3.353-1.389l-10.902-10.903c-2.969-2.969-4.567-7.08-4.387-11.277.18-4.192 2.139-8.157 5.368-10.869 5.899-4.951 15.028-4.334 20.781 1.418l10.386 10.385c1.854 1.854 1.854 4.851 0 6.706l-14.54 14.54c-.887.891-2.096 1.389-3.353 1.389zm-3.898-28.302c-1.209 0-2.371.37-3.277 1.124-1.219 1.024-1.925 2.452-1.992 4.021-.066 1.57.507 3.049 1.617 4.159l7.55 7.55 7.834-7.834-7.033-7.033c-1.308-1.305-3.049-1.987-4.699-1.987z"/><path d="m208.128 99.432c-4.088 0-8.252-1.608-11.401-4.757l-10.385-10.385c-1.854-1.854-1.854-4.851 0-6.706l14.54-14.54c1.778-1.778 4.927-1.778 6.706 0l10.903 10.903c2.969 2.969 4.567 7.08 4.387 11.277-.18 4.192-2.139 8.157-5.368 10.869-2.671 2.239-6 3.339-9.382 3.339zm-11.727-18.5 7.033 7.033c2.267 2.262 5.843 2.651 7.972.863 1.219-1.024 1.925-2.452 1.992-4.021s-.507-3.049-1.617-4.159l-7.55-7.55z"/></svg>