<svg height="512" viewBox="0 0 128 128" width="512" xmlns="http://www.w3.org/2000/svg"><g><path d="m73.055 92.5a1.751 1.751 0 0 0 -1.75 1.75v10.25a1.75 1.75 0 0 0 3.5 0v-10.25a1.751 1.751 0 0 0 -1.75-1.75z"/><path d="m26.152 47.312h-9a1.751 1.751 0 0 0 -1.75 1.75v9a1.751 1.751 0 0 0 1.75 1.75h9a1.75 1.75 0 0 0 1.75-1.75v-9a1.75 1.75 0 0 0 -1.75-1.75zm-1.75 9h-5.502v-5.5h5.5z"/><path d="m32.736 59.812h9a1.751 1.751 0 0 0 1.75-1.75v-9a1.751 1.751 0 0 0 -1.75-1.75h-9a1.751 1.751 0 0 0 -1.75 1.75v9a1.751 1.751 0 0 0 1.75 1.75zm1.75-9h5.5v5.5h-5.5z"/><path d="m48.319 59.812h9a1.75 1.75 0 0 0 1.75-1.75v-9a1.75 1.75 0 0 0 -1.75-1.75h-9a1.751 1.751 0 0 0 -1.75 1.75v9a1.751 1.751 0 0 0 1.75 1.75zm1.75-9h5.5v5.5h-5.5z"/><path d="m63.9 59.812h9a1.75 1.75 0 0 0 1.75-1.75v-9a1.75 1.75 0 0 0 -1.75-1.75h-9a1.751 1.751 0 0 0 -1.75 1.75v9a1.751 1.751 0 0 0 1.75 1.75zm1.75-9h5.5v5.5h-5.5z"/><path d="m85.736 76.093h9a1.751 1.751 0 0 0 1.75-1.75v-9a1.75 1.75 0 0 0 -1.75-1.75h-9a1.75 1.75 0 0 0 -1.75 1.75v9a1.751 1.751 0 0 0 1.75 1.75zm1.75-9h5.5v5.5h-5.5z"/><path d="m110.319 63.593h-9a1.75 1.75 0 0 0 -1.75 1.75v9a1.751 1.751 0 0 0 1.75 1.75h9a1.75 1.75 0 0 0 1.75-1.75v-9a1.749 1.749 0 0 0 -1.75-1.75zm-1.75 9h-5.5v-5.5h5.5z"/><path d="m85.736 92.374h9a1.751 1.751 0 0 0 1.75-1.75v-9a1.751 1.751 0 0 0 -1.75-1.75h-9a1.751 1.751 0 0 0 -1.75 1.75v9a1.751 1.751 0 0 0 1.75 1.75zm1.75-9h5.5v5.5h-5.5z"/><path d="m110.319 79.874h-9a1.751 1.751 0 0 0 -1.75 1.75v9a1.751 1.751 0 0 0 1.75 1.75h9a1.75 1.75 0 0 0 1.75-1.75v-9a1.75 1.75 0 0 0 -1.75-1.75zm-1.75 9h-5.5v-5.5h5.5z"/><path d="m85.736 108.655h9a1.751 1.751 0 0 0 1.75-1.75v-9a1.75 1.75 0 0 0 -1.75-1.75h-9a1.75 1.75 0 0 0 -1.75 1.75v9a1.751 1.751 0 0 0 1.75 1.75zm1.75-9h5.5v5.5h-5.5z"/><path d="m110.319 96.155h-9a1.75 1.75 0 0 0 -1.75 1.75v9a1.751 1.751 0 0 0 1.75 1.75h9a1.75 1.75 0 0 0 1.75-1.75v-9a1.749 1.749 0 0 0 -1.75-1.75zm-1.75 9h-5.5v-5.5h5.5z"/><path d="m26.152 63.593h-9a1.75 1.75 0 0 0 -1.75 1.75v9a1.751 1.751 0 0 0 1.75 1.75h9a1.75 1.75 0 0 0 1.75-1.75v-9a1.749 1.749 0 0 0 -1.75-1.75zm-1.75 9h-5.502v-5.5h5.5z"/><path d="m41.736 76.093a1.751 1.751 0 0 0 1.75-1.75v-9a1.75 1.75 0 0 0 -1.75-1.75h-9a1.75 1.75 0 0 0 -1.75 1.75v9a1.751 1.751 0 0 0 1.75 1.75zm-7.25-9h5.5v5.5h-5.5z"/><path d="m48.319 76.093h9a1.75 1.75 0 0 0 1.75-1.75v-9a1.749 1.749 0 0 0 -1.75-1.75h-9a1.75 1.75 0 0 0 -1.75 1.75v9a1.751 1.751 0 0 0 1.75 1.75zm1.75-9h5.5v5.5h-5.5z"/><path d="m63.9 76.093h9a1.75 1.75 0 0 0 1.75-1.75v-9a1.749 1.749 0 0 0 -1.75-1.75h-9a1.75 1.75 0 0 0 -1.75 1.75v9a1.751 1.751 0 0 0 1.75 1.75zm1.75-9h5.5v5.5h-5.5z"/><path d="m38.658 27.06c-.43 1.705.058 3.44 2.265 3.44 1.3 0 1.2-1.53 2.494-1.53s1.19 1.53 2.494 1.53c2.207 0 2.694-1.734 2.264-3.44-.168-.669-1.2-5.047-4.758-5.047s-4.59 4.378-4.759 5.047z"/><path d="m45.793 20.384c1.113.31 2.378-.744 2.826-2.354s-.091-3.166-1.2-3.476-2.378.745-2.826 2.355.088 3.166 1.2 3.475z"/><path d="m48.228 23.184a1.809 1.809 0 0 0 2.483-.349 1.81 1.81 0 0 0 .349-2.483 1.808 1.808 0 0 0 -2.482.35 1.808 1.808 0 0 0 -.35 2.482z"/><path d="m41.04 20.384c1.112-.309 1.651-1.865 1.2-3.475s-1.713-2.665-2.826-2.355-1.651 1.866-1.2 3.476 1.713 2.664 2.826 2.354z"/><path d="m38.6 23.184a1.808 1.808 0 0 0 -.349-2.482 1.81 1.81 0 0 0 -2.483-.35 1.811 1.811 0 0 0 .35 2.483 1.808 1.808 0 0 0 2.482.349z"/><path d="m121.5 113.75h-2.75v-72a1.751 1.751 0 0 0 -1.75-1.75h-36.19v-14.09a1.751 1.751 0 0 0 -1.75-1.75h-17.978c.051-.547.085-1.1.085-1.66a17.75 17.75 0 0 0 -35.5 0c0 .56.033 1.113.084 1.66h-14.751a1.751 1.751 0 0 0 -1.75 1.75v87.84h-2.75a1.751 1.751 0 0 0 -1.75 1.75v6a1.751 1.751 0 0 0 1.75 1.75h115a1.751 1.751 0 0 0 1.75-1.75v-6a1.751 1.751 0 0 0 -1.75-1.75zm-6.25-70.25v70.25h-34.44v-70.25zm-71.833-35.25a14.25 14.25 0 1 1 -14.25 14.25 14.267 14.267 0 0 1 14.25-14.25zm-30.667 19.41h13.687a17.745 17.745 0 0 0 33.959 0h16.914v86.09h-20.425v-26.625a1.751 1.751 0 0 0 -1.75-1.75h-20.215a1.751 1.751 0 0 0 -1.75 1.75v26.625h-20.42zm40.635 86.09h-16.715v-24.875h16.715zm66.365 6h-111.5v-2.5h111.5z"/><path d="m85.736 55.312h24.583a1.75 1.75 0 0 0 0-3.5h-24.583a1.75 1.75 0 0 0 0 3.5z"/></g></svg>