<?xml version="1.0" encoding="UTF-8"?>
<svg xmlns="http://www.w3.org/2000/svg" viewBox="0 0 64 64" width="512" height="512"><g id="Layer_2" data-name="Layer 2"><path d="M30.0127,58.95605A13.01819,13.01819,0,0,1,16.11237,47.622c4.52408,2.1017,8.26613,2.104,11.14249-1.47275C28.355,44.94824,29.22412,44,31,44a17.13483,17.13483,0,0,1,10.21484,3.78809,1,1,0,0,0,1.23041-1.57621A19.13522,19.13522,0,0,0,31,42c-7.26435.46113-4.27881,8.49625-14.97424,3.381a13.06952,13.06952,0,0,1,9.2594-11.8327A1.00007,1.00007,0,0,0,26,32.58984v-18.04a1.00022,1.00022,0,0,0-.75879-.9707c-1.70019-.42236-2.2085-.98144-2.24316-1.061,1.29946-1.998,10.713-1.93964,12.0039-.03662-.03466.11621-.543.67529-2.24316,1.09765A1.00022,1.00022,0,0,0,32,14.5498v18.04c-.01982.91041.99907,1.01891,1.64847,1.27633A1.02658,1.02658,0,1,0,34,31.86523v-16.56c1.94238-.626,3-1.60743,3-2.80518C37,10.09521,32.853,9,29,9s-8,1.09521-8,3.5c0,1.19775,1.05762,2.1792,3,2.80518V31.86426a14.86829,14.86829,0,0,0-4.76611,2.78522,10.75936,10.75936,0,0,0-2.374-1.24079V21.99512C18.70166,21.34424,19,20.35889,19,19.79,19,17.86279,15.98633,17,13,17s-6,.86279-6,2.79c0,.56885.29834,1.5542,2.14014,2.20508v11.4165C-4.04342,38.95991,2.66708,58.11035,16.42731,54.154a15.00192,15.00192,0,0,0,13.80025,6.79032A1.00011,1.00011,0,0,0,30.0127,58.95605ZM10.42578,35.08838a1.00023,1.00023,0,0,0,.71436-.9585V21.25a1.00066,1.00066,0,0,0-.75928-.9707,3.99624,3.99624,0,0,1-1.25342-.49463A7.75958,7.75958,0,0,1,13,19a7.75958,7.75958,0,0,1,3.87256.78467,3.99624,3.99624,0,0,1-1.25342.49463,1.00066,1.00066,0,0,0-.75928.9707V34.12988a.99991.99991,0,0,0,.71826.95948,8.73678,8.73678,0,0,1,2.20405,1.00372,15.18422,15.18422,0,0,0-2.75525,4.51452c-5.78032-.36927-3.73046,6.10425-11.00122,2.48462A9.05164,9.05164,0,0,1,10.42578,35.08838ZM13,52.71a9.00973,9.00973,0,0,1-8.84558-7.3764c3.09051,1.38416,5.89734,1.10424,7.808-1.32057.83756-.91381,1.36991-1.43108,2.443-1.43987a14.90207,14.90207,0,0,0,1.03315,9.79437A8.89257,8.89257,0,0,1,13,52.71Z"/><path d="M60,53H57.84326C63.6788,43.41737,57.06405,30.29263,46,29.14838V28a2.002,2.002,0,0,0-2-2V23a1,1,0,0,0-1-1H39a1,1,0,0,0-1,1v3a2.002,2.002,0,0,0-2,2V40a2.002,2.002,0,0,0,2,2h6a2.002,2.002,0,0,0,2-2V35.21143C54.31934,36.85846,56.89522,47.93829,49.9729,53H36V51H47a1.00019,1.00019,0,0,0-.00007-2H35a1,1,0,0,0-1,1v3a2.002,2.002,0,0,0-2,2v4a2.002,2.002,0,0,0,2,2H60a2.002,2.002,0,0,0,2-2V55A2.002,2.002,0,0,0,60,53ZM40,24h2v2H40Zm4,16H38V28h6v1a3.00019,3.00019,0,0,0,0,6Zm12,5A12.07055,12.07055,0,0,0,45.08984,33.05371c-.81857-.07069-2.06461.11145-2.08981-1.05378.01493-1.04546,1.13612-1.08122,1.935-.96175C55.62137,31.59156,61.75316,44.32081,55.47559,53h-2.5484A12.00183,12.00183,0,0,0,56,45ZM34,59V55H60l.00146,4Z"/><path d="M11,11a3.00019,3.00019,0,0,0,6-.00009A3.00019,3.00019,0,0,0,11,11Zm4,0a1.00019,1.00019,0,0,1-2-.00006A1.00019,1.00019,0,0,1,15,11Z"/><path d="M17,6a3.00019,3.00019,0,0,0,6-.00009A3.00019,3.00019,0,0,0,17,6Zm4,0a1.00019,1.00019,0,0,1-2-.00006A1.00019,1.00019,0,0,1,21,6Z"/></g></svg>
