<svg id="Layer_1" enable-background="new 0 0 512 512" height="512" viewBox="0 0 512 512" width="512" xmlns="http://www.w3.org/2000/svg"><g><circle cx="163.907" cy="288.157" r="8.157"/><path d="m264.0625 386c-1.8261719 0-3.6298828.095459-5.416748.2497559l-23.2561036-40.2810059c-1.2402344-2.1474609-3.3847656-3.5351562-5.7626953-3.8759766l-12.2832031-3.2910156 3.2158203-12.0009766c.8642578-1.9746094.9101562-4.2519531.0498047-6.3037109l-13.9628906-33.3112793c12.7285156-25.8000488 22.0148926-52.3208008 28.6884766-75.7365723 21.977539-77.1162109 25.7851562-154.4414062 22.0195312-201.0927734-.3554688-4.40625-3.4912109-8.0195312-7.8046875-8.9902344-4.3125-.9736328-8.6943359.9492188-10.9023438 4.7744141-.1689453.2929688-.3193359.5957031-.4501953.9072266l-74.4870605 177.7050781-74.4875489-177.7050781c-.1308594-.3115234-.28125-.6142578-.4501953-.9072266-2.2089844-3.8271484-6.5888672-5.7441406-10.9023438-4.7744141-4.3134766.9707031-7.4492188 4.5839844-7.8046875 8.9902344-3.765625 46.6513672.0419922 123.9765625 22.0195312 201.0927734 6.6716309 23.4091797 15.9755859 49.9155273 28.7011719 75.708252l-13.9746094 33.3395996c-.8242188 1.9658203-.7958984 4.1337891-.0195312 6.0458984l3.2851562 12.2587891-12.0009766 3.2158203c-2.4912109.2763672-4.7548828 1.7158203-6.0458984 3.9511719l-23.2524413 40.2751465c-1.762207-.1499024-3.540039-.2438965-5.340332-.2438965-34.4628906 0-62.5 28.0371094-62.5 62.5s28.0371094 62.5 62.5 62.5 62.5-28.0371094 62.5-62.5c0-14.9848633-5.3051758-28.7512207-14.1298828-39.5297852l14.6806641-25.4282227c13.8476562-8.7902832 26.1950684-19.6037598 37.2250977-31.71875 11.0258789 12.1171875 23.3718262 22.9291992 37.2182617 31.71875l14.7148438 25.4865723c-8.796631 10.7700196-14.0839845 24.5131836-14.0839845 39.4714356 0 34.4628906 28.0371094 62.5 62.5 62.5s62.5-28.0371094 62.5-62.5-28.0371094-62.5-62.5-62.5zm-156.5898438-178.9365234c-17.6533203-61.9404297-23.2714843-123.9082032-22.6445312-169.1103516l70.2077637 167.4941406-25.9555664 61.9228516c-7.7668457-17.428711-15.0783692-37.3962402-21.6076661-60.3066406zm-44.0351562 287.9365234c-25.640625 0-46.5-20.859375-46.5-46.5s20.859375-46.5 46.5-46.5 46.5 20.859375 46.5 46.5-20.859375 46.5-46.5 46.5zm52.9169922-123.9902344c-1.1279297.6953125-2.0644531 1.6601562-2.7265625 2.8076172l-13.8061523 23.9130859c-4.4880371-3.2255859-9.4116211-5.8803711-14.6755371-7.8364258l19.0197754-32.9438477 17.7792969-4.7636719c2.0498047-.5488281 3.796875-1.8896484 4.8574219-3.7275391 1.0615234-1.8378906 1.3486328-4.0214844.7998047-6.0703125l-4.9208984-18.3632812 119.9101561-286.0722655c.6269531 45.2021484-4.9912109 107.1699219-22.6445312 169.1103516-28.5869141 100.305664-72.1132813 144.5185546-103.5927735 163.946289zm94.7109375 0c-11.1862793-6.9035645-23.894043-16.9453125-36.9116211-31.5136719 8.4562988-10.7312012 16.0302734-22.2094727 22.7961426-34.0551758l7.7893066 18.5825195-4.9208984 18.3652344c-1.1435547 4.2675781 1.3896484 8.6542969 5.6572266 9.7978516l17.7783203 4.7636719 19.0351562 32.9692383c-5.2614746 1.9619141-10.1826172 4.6206055-14.6674805 7.8510742l-13.8295898-23.953125c-.6621094-1.1474609-1.5986328-2.1123047-2.7265625-2.8076172zm52.9970703 123.9902344c-25.640625 0-46.5-20.859375-46.5-46.5s20.859375-46.5 46.5-46.5 46.5 20.859375 46.5 46.5-20.859375 46.5-46.5 46.5z"/><path d="m264.0625 420c-15.7148438 0-28.5 12.7851562-28.5 28.5s12.7851562 28.5 28.5 28.5 28.5-12.7851562 28.5-28.5-12.7851562-28.5-28.5-28.5zm0 41c-6.8925781 0-12.5-5.6074219-12.5-12.5s5.6074219-12.5 12.5-12.5 12.5 5.6074219 12.5 12.5-5.6074219 12.5-12.5 12.5z"/><path d="m63.4375 420c-15.7148438 0-28.5 12.7851562-28.5 28.5s12.7851562 28.5 28.5 28.5 28.5-12.7851562 28.5-28.5-12.7851562-28.5-28.5-28.5zm0 41c-6.8925781 0-12.5-5.6074219-12.5-12.5s5.6074219-12.5 12.5-12.5 12.5 5.6074219 12.5 12.5-5.6074219 12.5-12.5 12.5z"/><path d="m502 49.9335938c4.4179688 0 8-3.5820312 8-8s-3.5820312-8-8-8h-73v-16.9335938h73c4.4179688 0 8-3.5820312 8-8s-3.5820312-8-8-8h-120c-17.6445312 0-32 14.3554688-32 32v446c0 17.6445312 14.3554688 32 32 32h120c4.4179688 0 8-3.5820312 8-8s-3.5820312-8-8-8h-73v-16.9335938h73c4.4179688 0 8-3.5820312 8-8s-3.5820312-8-8-8h-73v-16.9326172h73c4.4179688 0 8-3.5820312 8-8s-3.5820312-8-8-8h-73v-16.9335938h73c4.4179688 0 8-3.5820312 8-8s-3.5820312-8-8-8h-73v-16.9335938h73c4.4179688 0 8-3.5820312 8-8s-3.5820312-8-8-8h-73v-16.9335938h73c4.4179688 0 8-3.5820312 8-8s-3.5820312-8-8-8h-73v-16.9326172h73c4.4179688 0 8-3.5820312 8-8s-3.5820312-8-8-8h-73v-16.9335938h73c4.4179688 0 8-3.5820312 8-8s-3.5820312-8-8-8h-73v-16.9335938h73c4.4179688 0 8-3.5820312 8-8s-3.5820312-8-8-8h-73v-16.9335938h73c4.4179688 0 8-3.5820312 8-8s-3.5820312-8-8-8h-73v-16.9326172h73c4.4179688 0 8-3.5820312 8-8s-3.5820312-8-8-8h-73v-16.9335938h73c4.4179688 0 8-3.5820312 8-8s-3.5820312-8-8-8h-73v-16.9335938h73c4.4179688 0 8-3.5820312 8-8s-3.5820312-8-8-8h-73v-16.9335933h73c4.4179688 0 8-3.5820312 8-8s-3.5820312-8-8-8h-73v-16.9326171zm-89 445.0664062h-31c-8.8222656 0-16-7.1777344-16-16v-446c0-8.8222656 7.1777344-16 16-16h31z"/></g></svg>