<svg id="Layer_1" height="512" viewBox="0 0 55 55" width="512" xmlns="http://www.w3.org/2000/svg" data-name="Layer 1"><path d="m42.49 52.17h-30a4.61 4.61 0 0 1 -4.59-5.11l3.42-31.61a3.33 3.33 0 0 1 3.31-3h25.7a3.33 3.33 0 0 1 3.31 3l3.42 31.61a4.61 4.61 0 0 1 -4.59 5.11zm-27.84-38.17a1.83 1.83 0 0 0 -1.82 1.64l-3.42 31.58a3.15 3.15 0 0 0 .78 2.42 3.1 3.1 0 0 0 2.32 1h30a3.1 3.1 0 0 0 2.32-1 3.15 3.15 0 0 0 .78-2.42l-3.44-31.61a1.83 1.83 0 0 0 -1.82-1.61z"/><path d="m35 19.72a.75.75 0 0 1 -.75-.75v-7.9a6.75 6.75 0 0 0 -13.5 0v7.93a.75.75 0 0 1 -1.5 0v-7.9a8.25 8.25 0 0 1 16.5 0v7.9a.76.76 0 0 1 -.75.72z"/><path d="m35 23.42a2.52 2.52 0 1 1 2.51-2.52 2.52 2.52 0 0 1 -2.51 2.52zm0-3.53a1 1 0 1 0 1 1 1 1 0 0 0 -1-1z"/><path d="m20 23.42a2.52 2.52 0 1 1 2.52-2.52 2.51 2.51 0 0 1 -2.52 2.52zm0-3.53a1 1 0 0 0 0 2 1 1 0 0 0 1-1 1 1 0 0 0 -1-1z"/><path d="m29.35 45.35a3.68 3.68 0 0 1 -1.63-.35 2.14 2.14 0 0 0 -1.91 0 3.69 3.69 0 0 1 -5.32-3.3 4.54 4.54 0 0 1 2.05-3.74 1.8 1.8 0 0 0 .76-.84 3.67 3.67 0 0 1 6.93 0 1.79 1.79 0 0 0 .77.85 4.57 4.57 0 0 1 2 3.73 3.68 3.68 0 0 1 -3.65 3.65zm-2.59-2.1a3.64 3.64 0 0 1 1.62.38 2.19 2.19 0 0 0 3.15-2 3.07 3.07 0 0 0 -1.32-2.45 3.24 3.24 0 0 1 -1.39-1.63 2.18 2.18 0 0 0 -4.11 0 3.12 3.12 0 0 1 -1.4 1.62 3.09 3.09 0 0 0 -1.31 2.5 2.19 2.19 0 0 0 2.18 2.18 2.13 2.13 0 0 0 1-.22 3.57 3.57 0 0 1 1.58-.38z"/><path d="m33.52 37.91a2.13 2.13 0 0 1 -1.52-.61 2.54 2.54 0 0 1 .29-3.55 3 3 0 0 1 1.71-.87 2.18 2.18 0 0 1 1.8.58 2.1 2.1 0 0 1 .6 1.53 2.88 2.88 0 0 1 -.89 2 3 3 0 0 1 -1.74.88zm.81-3.55h-.12a1.46 1.46 0 0 0 -.86.44c-.46.46-.59 1.13-.29 1.43a.66.66 0 0 0 .57.16 1.51 1.51 0 0 0 .86-.45 1.42 1.42 0 0 0 .44-1 .63.63 0 0 0 -.16-.46.64.64 0 0 0 -.44-.12z"/><path d="m20 37.9a3 3 0 0 1 -2.92-2.9 2.13 2.13 0 0 1 .6-1.53 2.2 2.2 0 0 1 1.81-.58 3 3 0 0 1 1.74.87 2.55 2.55 0 0 1 .3 3.55 2.15 2.15 0 0 1 -1.53.59zm-.81-3.54a.63.63 0 0 0 -.45.16.65.65 0 0 0 -.17.46 1.43 1.43 0 0 0 .43 1.02c.46.46 1.13.6 1.43.29s.17-1-.28-1.42a1.46 1.46 0 0 0 -.86-.44z"/><path d="m29.55 34.25a2.05 2.05 0 0 1 -1.95-1.42 3.05 3.05 0 0 1 1.78-3.74 2.16 2.16 0 0 1 1.64.07 2.13 2.13 0 0 1 1.07 1.22 2.93 2.93 0 0 1 -.16 2.22 2.93 2.93 0 0 1 -1.64 1.52 2.1 2.1 0 0 1 -.74.13zm.58-3.79a.66.66 0 0 0 -.25.05 1.42 1.42 0 0 0 -.76.75 1.4 1.4 0 0 0 -.1 1.07.62.62 0 0 0 .3.37.66.66 0 0 0 .48 0 1.47 1.47 0 0 0 .78-.76 1.45 1.45 0 0 0 .1-1.07.68.68 0 0 0 -.31-.37.69.69 0 0 0 -.24-.04z"/><path d="m24 34.25a2.14 2.14 0 0 1 -.74-.13 2.93 2.93 0 0 1 -1.64-1.52 3 3 0 0 1 -.16-2.22 2.11 2.11 0 0 1 1.08-1.22 2.13 2.13 0 0 1 1.63-.07 2.9 2.9 0 0 1 1.62 1.52 2.93 2.93 0 0 1 .16 2.22 2.08 2.08 0 0 1 -1.08 1.22 1.85 1.85 0 0 1 -.87.2zm-.58-3.79a.46.46 0 0 0 -.23.05.6.6 0 0 0 -.31.37 1.4 1.4 0 0 0 .12 1.12 1.43 1.43 0 0 0 .77.76.66.66 0 0 0 .48 0 .68.68 0 0 0 .31-.37 1.56 1.56 0 0 0 -.87-1.82.66.66 0 0 0 -.3-.11z"/></svg>