<svg xmlns="http://www.w3.org/2000/svg" viewBox="0 0 24 24" width="24" height="24" fill="none" stroke="#2563eb" stroke-width="2.8" stroke-linecap="round" stroke-linejoin="round">
  <circle cx="12" cy="12" r="10" />
  <path d="M16.7 13.3c-.2-.1-1.1-.5-1.3-.6-.2-.1-.3-.1-.5.1-.1.2-.5.6-.6.7-.1.1-.2.1-.4.1-.2-.1-.8-.3-1.5-1-.6-.5-1-1.1-1.1-1.3-.1-.2 0-.3.1-.4.1-.1.2-.2.3-.3.1-.1.1-.2.1-.3 0-.1 0-.2-.1-.3-.1-.1-.4-1-.5-1.4-.1-.4-.3-.3-.4-.3-.1 0-.2 0-.3 0-.1 0-.3.1-.4.2-.1.1-.6.5-.6 1.3 0 .8.6 1.5.7 1.6.1.1 1.2 1.7 2.9 2.4.4.2.7.3 1 .3.4.1.8.1 1.1.1.3 0 .9-.4 1-.8.1-.4.1-.7.1-.8 0-.1-.1-.1-.3-.2z" />
</svg>